<?xml version="1.0" encoding="utf-8"?>
<!-- Generator: Adobe Illustrator 28.3.0, SVG Export Plug-In . SVG Version: 6.00 Build 0)  -->
<svg version="1.1" id="Warstwa_1" xmlns="http://www.w3.org/2000/svg" xmlns:xlink="http://www.w3.org/1999/xlink" x="0px" y="0px"
	 viewBox="0 0 512 512" style="enable-background:new 0 0 512 512;" xml:space="preserve">
<style type="text/css">
	.st0{fill:#DC2400;stroke:#FFFFFF;stroke-width:56.6929;stroke-miterlimit:10;}
	.st1{fill:#DC2400;}
</style>
<path class="st0" d="M453.9,192H319.7V58.4c0-16.1-14.7-29.4-33.6-29.4h-60.2c-18.9,0-33.6,13.2-33.6,29.4V192H58.1
	c-16.1,0-29.4,15.3-29.4,34.3v60.2c0,18.1,13.4,33.6,29.4,33.6h134.2v133.6c0,16.1,14.7,29.4,33.6,29.4h60.2
	c18.9,0,33.6-13.2,33.6-29.4V320h134.2c16.1,0,29.4-15.3,29.4-33.6v-60.2C483.3,207.5,470.1,192,453.9,192z"/>
<path class="st1" d="M453.9,192H319.7V58.4c0-16.1-14.7-29.4-33.6-29.4h-60.2c-18.9,0-33.6,13.2-33.6,29.4V192H58.1
	c-16.1,0-29.4,15.3-29.4,34.3v60.2c0,18.1,13.4,33.6,29.4,33.6h134.2v133.6c0,16.1,14.7,29.4,33.6,29.4h60.2
	c18.9,0,33.6-13.2,33.6-29.4V320h134.2c16.1,0,29.4-15.3,29.4-33.6v-60.2C483.3,207.5,470.1,192,453.9,192z"/>
</svg>
