<?xml version="1.0" encoding="utf-8"?>
<!-- Generator: Adobe Illustrator 28.3.0, SVG Export Plug-In . SVG Version: 6.00 Build 0)  -->
<svg version="1.1" id="Warstwa_1" xmlns="http://www.w3.org/2000/svg" xmlns:xlink="http://www.w3.org/1999/xlink" x="0px" y="0px"
	 viewBox="0 0 800 800" style="enable-background:new 0 0 800 800;" xml:space="preserve">
<style type="text/css">
	.st0{fill:#0072DC;}
</style>
<path class="st0" d="M400,75C220.5,75,75,220.5,75,400s145.5,325,325,325s325-145.5,325-325S579.5,75,400,75z M581.5,307.7
	L344.3,544.8c-6,5.9-15.6,5.9-21.5,0L318,540l0,0L187.5,408.6c-5.9-6-5.9-15.6,0-21.5l32.4-32.3c5.9-5.9,15.6-5.9,21.5,0l92.2,92.9
	l193.9-193.9c6-5.9,15.6-5.9,21.5,0l32.3,32.3C587.4,292,587.4,301.7,581.5,307.7L581.5,307.7z"/>
</svg>
