<?xml version="1.0" encoding="utf-8"?>
<!-- Generator: Adobe Illustrator 28.3.0, SVG Export Plug-In . SVG Version: 6.00 Build 0)  -->
<svg version="1.1" id="Warstwa_1" xmlns="http://www.w3.org/2000/svg" xmlns:xlink="http://www.w3.org/1999/xlink" x="0px" y="0px"
	 viewBox="0 0 478.8 197.3" style="enable-background:new 0 0 478.8 197.3;" xml:space="preserve">
<style type="text/css">
	.st0{fill:none;}
	.st1{fill:#0072DC;}
</style>
<g>
	<g>
		<g>
			<path class="st0" d="M187.4,42c4.2,1.4,10.5,0.3,24.9-1.8c31.2-4.4,56-6.8,88.2-5.5c-3.8-4.9-20.5-11.6-28.6-14.6
				C239.6,7.9,190.6,5.5,156.2,7.3C160.2,12.6,185.6,41.4,187.4,42z"/>
			<path class="st0" d="M315.2,69.9c-30,29.4,16.7,23.7,33.6,24c2.2-1.9,16.5-22.4,17-26C355.4,67.9,319.6,65.5,315.2,69.9z"/>
			<path class="st0" d="M430.1,93.4l39.4,1.7l0-0.2l-40.8-4l41.1,1.8l-41.7-4.1l42,1.8v0L427,86.1l43.7,1.9v0l-42-4.1l42.3,1.8
				l-43.6-4.2l43.3,1.8L428,79.1l42.3,1.8l-43.6-4.3l44.1,1.9l-42.4-4.2l42.1,1.8l-43.4-4.3l37.1,1.6c-1.7-0.3-3.8-0.5-6.2-0.9
				c-11.3-1.7-64.2-7.4-71.6-2.4c-4.5,3.1-14.1,20-16.1,20.9c3.1,1.8,65.9,4.7,90.4,5.3L430.1,93.4z"/>
			<polygon class="st0" points="180.9,151.9 178.7,171.8 184.1,171.8 181.9,151.9 			"/>
			<path class="st0" d="M110.7,46.4h-39v-2.9c-3.3,4-6.1,8.3-8.2,12.9c15.7-1.4,32.7-3,50.8-5v-0.2
				C114.3,48.7,112.6,46.4,110.7,46.4z"/>
			<path class="st0" d="M71.7,27.2V7.6c0-2-2.1-3.6-4.7-3.6H51.3c-2.6,0-4.7,1.6-4.7,3.6v30.8c2.1-0.4,4.4-0.7,6.8-1
				C59,34,65.2,30.5,71.7,27.2z"/>
			<path class="st0" d="M110.7,38.4c6.2,0,11.3,5.4,11.7,12.3c16.1-1.8,33.2-3.8,51.2-5.9c4.4-0.5,5.7-0.6,2.9-3.7L150,8.8
				c-31.5,4.8-54.9,13.7-70.3,26.7v2.9H110.7z"/>
			<polygon class="st0" points="224.4,145.5 224.4,161.3 230.8,161.3 231.9,160.4 231.9,146.4 230.8,145.5 			"/>
			<path class="st0" d="M41.1,64.1c35-8.3,9.5-19.3,1.3-7.9c-3.1,4.4-22.2-2.6-17-9.7H7.6c-1.9,0-3.6,2.3-3.6,4.9V67
				c0,2.5,1.7,4.7,3.6,4.7h39v38.8c0,2,2.1,3.6,4.7,3.6H67c2.6,0,4.7-1.6,4.7-3.6V71.7h39c1.9,0,3.6-2.2,3.6-4.7v-3.4
				C78.2,62.8,29.4,66.9,41.1,64.1z"/>
			<polygon class="st0" points="375.1,145.5 375.1,185.9 381.5,185.9 382.6,185 382.6,146.4 381.5,145.5 			"/>
			<path d="M71.7,43.5V27.2C65.2,30.5,59,34,53.4,37.5c-2.5,0.3-4.7,0.6-6.8,1v8H25.4c-5.2,7.1,13.9,14.1,17,9.7
				c8.2-11.3,33.7-0.3-1.3,7.9c-11.7,2.8,37.2-1.4,73.2-0.6v-12c-18.1,1.9-35.1,3.6-50.8,5C65.6,51.9,68.3,47.5,71.7,43.5z"/>
			<path d="M201.1,113.2c3.4-25.8,19.9-45.3,39.2-44.9c10.9,0.2,20.6,6.6,27.5,16.8c6.2,9.2,10,21.4,10.3,34.9
				c1-5.9,1.3-12,0.8-17.9c-0.3-4-1-7.9-2-11.8c-1.8-5.2-3.3-8.9-2.2-6.9c53.4-44-116.8-23.5-117.3-23.5
				c48.2-18.7,174.6-18.1,206.7,1.3c-13.2,0-46.2-3.4-53.7,3.9c-27.2,26.7-12.9,32.8,16.3,33.6c31.2,0.8,62,1.7,93.2,2.9
				c18.8,0.9,36.4,2.1,55.2,1.4c4.3-33.8,6.5-30.1-3.8-38.9c-37.1-26.4-110.7-33.4-165.2-33.2l-0.3-0.4
				c-5.2-6.7-23.3-13.7-31.6-16.8c-33.7-12.6-82.6-15-118.5-13.1c-21.6,1.1-50.7,10.7-76,22.7v12.2c15.3-13,38.8-21.9,70.3-26.7
				l26.4,32.1c2.8,3.1,1.6,3.2-2.9,3.7c-18,2.2-35,4.2-51.2,5.9c0,0.2,0,0.5,0,0.7v12.5c16.5,0.8,28.5,3,27.6,7.9
				c-0.4,2.2-30.3,11.5-36,11.4c-35.9-0.7,4.6,18.1,39.3,11c33.6-6.9,46.4,11.9,8.9,9.7c-2.7-0.2-15.3,7.3,17.4,7.9
				C181.9,111.8,196.6,111.7,201.1,113.2z M386.5,70.2c7.3-5,60.3,0.7,71.6,2.4c2.4,0.4,4.5,0.6,6.2,0.9l-37.1-1.6l43.4,4.3
				l-42.1-1.8l42.4,4.2l-44.1-1.9l43.6,4.3L428,79.1l42.6,4.2l-43.3-1.8l43.6,4.2l-42.3-1.8l42,4.1v0L427,86.1l43.3,4.2v0l-42-1.8
				l41.7,4.1l-41.1-1.8l40.8,4l0,0.2l-39.4-1.7l30.6,3c-24.5-0.5-87.3-3.5-90.4-5.3C372.4,90.2,382,73.3,386.5,70.2z M348.7,93.9
				c-16.9-0.3-63.6,5.4-33.6-24c4.5-4.4,40.3-2,50.5-2C365.2,71.5,350.9,92,348.7,93.9z M156.2,7.3c34.4-1.8,83.4,0.6,115.7,12.7
				c8.1,3,24.8,9.8,28.6,14.6c-32.2-1.3-57,1.1-88.2,5.5c-14.4,2.1-20.7,3.2-24.9,1.8C185.6,41.4,160.2,12.6,156.2,7.3z"/>
			<path class="st1" d="M207.9,112.3l2.7,0c4.8-20.2,18.6-34.7,34.6-34.5c2.9,0,5.7,0.6,8.4,1.6c-4-2.9-8.6-4.5-13.4-4.6
				C224.6,74.6,211.2,90.6,207.9,112.3z"/>
			<path class="st1" d="M472.2,109.3l-98.6,0.9C418.1,114.6,451,114.3,472.2,109.3z"/>
			<polygon points="34.2,156 33.1,156 24,134.1 5.2,134.1 5.2,197.3 21.3,197.3 21.3,161.3 21.9,161.3 27.2,175.3 40.1,175.3 
				45.5,161.3 46,161.3 46,197.3 62.2,197.3 62.2,134.1 43.4,134.1 			"/>
			<polygon points="88.5,155.8 87.4,155.8 82.6,134.1 66.5,134.1 66.5,144.7 79.3,172.4 79.3,197.3 96.5,197.3 96.5,172.4 
				109.4,144.7 109.4,134.1 93.3,134.1 			"/>
			<path class="st1" d="M147.2,134.1h-25.1c-4.7,1.4-8.4,3.9-8.4,10.5v42.1c0,6.7,3.7,9.1,8.4,10.5h25.1c4.7-1.4,8.4-3.9,8.4-10.5
				v-15.1h-17.2V185l-1.1,0.9H132l-1.1-0.9v-38.6l1.1-0.9h5.4l1.1,0.9v13.5h17.2v-15.3C155.6,137.9,152,135.5,147.2,134.1z"/>
			<path class="st1" d="M169.7,134.1l-9.8,52.6v10.6H176l1.3-12.3h8.2l1.3,12.3h16.1v-10.6l-9.8-52.6H169.7z M178.7,171.8l2.1-19.9
				h1.1l2.1,19.9H178.7z"/>
			<path class="st1" d="M249.1,158v-13.4c0-6.7-3.7-9.1-8.4-10.5h-33.5v63.2h17.2v-24.6h1.8l9.9,24.6h15v-8.9l-9.2-20.2
				C246.1,166.7,249.1,164.1,249.1,158z M231.9,160.4l-1.1,0.9h-6.4v-15.8h6.4l1.1,0.9V160.4z"/>
			<polygon points="283.2,156 282.2,156 273,134.1 254.2,134.1 254.2,197.3 270.4,197.3 270.4,161.3 270.9,161.3 276.3,175.3 
				289.2,175.3 294.5,161.3 295.1,161.3 295.1,197.3 311.2,197.3 311.2,134.1 292.4,134.1 			"/>
			<polygon points="333.7,171.8 350.9,171.8 350.9,158.7 333.7,158.7 333.7,147.2 352,147.2 352,134.1 316.5,134.1 316.5,197.3 
				352.5,197.3 352.5,184.1 333.7,184.1 			"/>
			<path d="M391.4,134.1h-33.5v63.2h33.5c4.7-1.4,8.4-3.9,8.4-10.5v-42.1C399.8,137.9,396.2,135.5,391.4,134.1z M382.6,185l-1.1,0.9
				h-6.4v-40.4h6.4l1.1,0.9V185z"/>
			<polygon points="405.2,147.2 408.4,147.2 408.4,184.1 405.2,184.1 405.2,197.3 428.8,197.3 428.8,184.1 425.6,184.1 425.6,147.2 
				428.8,147.2 428.8,134.1 405.2,134.1 			"/>
			<path d="M467.7,134.1h-25.1c-4.7,1.4-8.4,3.9-8.4,10.5v42.1c0,6.7,3.7,9.1,8.4,10.5h25.1c4.7-1.4,8.4-3.9,8.4-10.5v-15.1h-17.2
				V185l-1.1,0.9h-5.4l-1.1-0.9v-38.6l1.1-0.9h5.4l1.1,0.9v13.5h17.2v-15.3C476.1,137.9,472.4,135.5,467.7,134.1z"/>
			<path class="st1" d="M110.7,42.4H75.7V7.6C75.7,3.5,71.9,0,67,0H51.3c-4.9,0-8.7,3.5-8.7,7.6v34.8H7.6c-4.2,0-7.6,4-7.6,8.9V67
				c0,4.7,3.5,8.7,7.6,8.7h34.9v34.8c0,4.2,3.8,7.6,8.7,7.6H67c4.9,0,8.7-3.5,8.7-7.6V75.7h34.9c4.2,0,7.7-4,7.7-8.7V51.3
				C118.3,46.4,114.9,42.4,110.7,42.4z"/>
		</g>
	</g>
</g>
</svg>
